<?xml version="1.0" encoding="UTF-8"?>
<svg id="Calque_2" data-name="Calque 2" xmlns="http://www.w3.org/2000/svg" xmlns:xlink="http://www.w3.org/1999/xlink" viewBox="0 0 22.88 26">
  <defs>
    <style>
      .cls-1 {
        fill: url(#Couleur_terre_7);
      }

      .cls-1, .cls-2, .cls-3, .cls-4, .cls-5, .cls-6 {
        stroke-width: 0px;
      }

      .cls-2 {
        fill: url(#Ciel);
      }

      .cls-3 {
        fill: #3f3f3f;
      }

      .cls-4 {
        fill: url(#Etain_1);
      }

      .cls-5 {
        fill: #000;
        opacity: .3;
      }

      .cls-6 {
        fill: url(#Fonte);
      }
    </style>
    <linearGradient id="Couleur_terre_7" data-name="Couleur terre 7" x1="11.26" y1="10.84" x2="20.76" y2="10.84" gradientUnits="userSpaceOnUse">
      <stop offset="0" stop-color="#cbad6f"/>
      <stop offset=".5" stop-color="#ae852b"/>
      <stop offset="1" stop-color="#947223"/>
    </linearGradient>
    <linearGradient id="Ciel" x1="0" y1="13" x2="22.88" y2="13" gradientUnits="userSpaceOnUse">
      <stop offset="0" stop-color="#cce0f4"/>
      <stop offset=".06" stop-color="#c2dcf2"/>
      <stop offset=".17" stop-color="#a9d2ee"/>
      <stop offset=".31" stop-color="#7fc2e7"/>
      <stop offset=".46" stop-color="#46abdd"/>
      <stop offset=".57" stop-color="#1e9cd7"/>
      <stop offset=".87" stop-color="#0075be"/>
      <stop offset=".99" stop-color="#005b97"/>
    </linearGradient>
    <linearGradient id="Fonte" x1="6.98" y1="13.9" x2="15.73" y2="13.9" gradientUnits="userSpaceOnUse">
      <stop offset="0" stop-color="#919195"/>
      <stop offset=".53" stop-color="#a4a3a3"/>
      <stop offset="1" stop-color="#5f5e60"/>
    </linearGradient>
    <linearGradient id="Etain_1" data-name="Etain 1" x1="11.4" y1="18.47" x2="16.45" y2="18.47" gradientUnits="userSpaceOnUse">
      <stop offset=".03" stop-color="#b2b2b2"/>
      <stop offset=".24" stop-color="silver"/>
      <stop offset=".38" stop-color="#cecece"/>
      <stop offset=".58" stop-color="#bfbfbf"/>
      <stop offset=".72" stop-color="#b2b2b2"/>
      <stop offset="1" stop-color="#dadada"/>
      <stop offset="1" stop-color="#b2b2b2"/>
    </linearGradient>
  </defs>
  <g id="Calque_1-2" data-name="Calque 1">
    <g>
      <path class="cls-1" d="M11.27,11.18c0-.79,0-1.59,0-2.38,0-2.08,0-4.17,0-6.25,0-.63.38-.89.82-.94.31-.04.59.16.86.32.6.36,1.2.72,1.8,1.08.83.5,1.67.99,2.5,1.49.59.35,1.19.7,1.79,1.05.33.19.67.38.98.61.5.33.73.84.73,1.43.01,2.94,0,5.87,0,8.81,0,.68-.28,1.23-.82,1.61-.65.46-1.36.82-2.04,1.24-.41.25-.82.49-1.23.72-.1.06-.19.16-.33.09-.06-.11-.05-.23-.05-.34,0-1.43,0-2.86,0-4.3,0-.15-.01-.29-.02-.44-.04-.46-.24-.8-.61-1.05-.65-.43-1.32-.8-1.99-1.19-.75-.45-1.51-.9-2.27-1.35-.07-.04-.19-.06-.14-.2Z"/>
      <path class="cls-2" d="M21.24,6.85c0-.3,0-.6,0-.91,0-.31.18-.5.47-.51.23,0,.46,0,.69,0,.28,0,.46.19.47.48,0,.05,0,.1,0,.15,0,4.09,0,8.19,0,12.28,0,.84-.39,1.43-1.07,1.83-.81.48-1.62.97-2.43,1.45-.6.35-1.2.7-1.8,1.06-.72.42-1.43.86-2.15,1.28-.59.35-1.18.69-1.76,1.03-.42.25-.83.52-1.26.75-.71.38-1.42.3-2.1-.11-.48-.29-.96-.57-1.44-.86-.73-.44-1.45-.87-2.18-1.3-.61-.36-1.23-.72-1.84-1.08-.71-.42-1.41-.84-2.11-1.26-.49-.29-.98-.58-1.48-.86-.59-.33-1.04-.79-1.19-1.51-.04-.18-.06-.37-.06-.56,0-3.5,0-6.99,0-10.49,0-.61.16-1.18.6-1.62.24-.24.54-.39.82-.56.85-.51,1.69-1.01,2.54-1.51.71-.42,1.43-.83,2.14-1.25.8-.47,1.59-.96,2.39-1.44.61-.36,1.22-.72,1.84-1.07.2-.11.38-.29.63-.27.28.02.41.07.46.38.08.46.11.93-.08,1.38-.1.24-.29.38-.5.5-1.08.64-2.15,1.29-3.23,1.93-.71.42-1.42.82-2.12,1.24-1,.6-2.03,1.17-3.02,1.81-.13.09-.21.23-.34.31-.32.42-.45.9-.45,1.44,0,2.74,0,5.48,0,8.22,0,.84.36,1.46,1.06,1.87,1.27.74,2.54,1.51,3.81,2.25,1.35.79,2.68,1.61,4.04,2.37.49.28,1.01.3,1.52.08.51-.21.97-.54,1.44-.82,2.05-1.21,4.1-2.43,6.15-3.64.32-.19.65-.37.92-.65.28-.29.45-.62.51-1.02.04-.24.06-.48.06-.72,0-3.22,0-6.43,0-9.65,0-.15-.03-.29.01-.44Z"/>
      <path class="cls-5" d="M21.24,6.85c.06.08.05.17.05.25,0,3.35,0,6.7,0,10.05,0,.48-.1.96-.39,1.35-.22.3-.51.51-.82.69-1.37.8-2.73,1.61-4.1,2.42-1.17.69-2.33,1.38-3.49,2.08-.78.46-1.52.35-2.26-.12-.59-.37-1.2-.72-1.81-1.08-.86-.51-1.71-1.02-2.57-1.53-.68-.4-1.37-.8-2.05-1.21-.47-.29-.98-.53-1.42-.87-.46-.37-.72-.87-.72-1.46-.02-2.89-.01-5.77,0-8.66,0-.44.15-.84.42-1.18.02-.02.04-.07.08-.02,0,2.93-.01,5.87,0,8.8,0,.78.37,1.38,1.01,1.77,1.05.64,2.12,1.25,3.18,1.88.03.02.06.03.09.05.22.03.38.18.56.28,1.44.86,2.89,1.71,4.33,2.56.04.03.08.06.13.08.09.04.16-.02.23-.06,1.23-.73,2.46-1.45,3.69-2.19.27-.16.54-.32.8-.48.08-.05.17-.11.27-.11.88-.52,1.77-1.05,2.65-1.57.3-.18.62-.34.9-.55.5-.38.77-.89.78-1.55,0-2.9,0-5.8,0-8.7,0-.55-.18-1.01-.55-1.39-.04-.05-.08-.1-.13-.15.31.11.56.33.85.47.09.05.17.12.28.13Z"/>
      <path class="cls-3" d="M11.44,23.02c-.37-.16-.69-.39-1.04-.59-.63-.36-1.26-.75-1.89-1.12-.69-.41-1.39-.83-2.08-1.25,0-1.68,0-3.37,0-5.05,0-.47.14-.87.55-1.13.27.08.5.26.74.4,1.19.71,2.38,1.42,3.58,2.12.09.05.17.1.19.22.02.09.02.18.02.26,0,1.93,0,3.86,0,5.79,0,.12.02.25-.07.36Z"/>
      <path class="cls-6" d="M11.44,16.53c-1.1-.65-2.2-1.29-3.29-1.94-.39-.23-.8-.44-1.16-.72.48-.29.97-.58,1.45-.87.84-.5,1.68-1,2.52-1.5.13-.08.26-.16.4-.23.06.16.22.19.34.26,1.04.63,2.09,1.24,3.14,1.85.3.18.6.36.9.54,0,.11-.09.14-.16.18-1.33.79-2.67,1.58-4,2.37-.04.03-.08.05-.14.05Z"/>
      <path class="cls-4" d="M16.45,20.1c-.49.29-.98.58-1.48.87-.84.49-1.68.99-2.53,1.48-.31.18-.63.36-.94.54-.07.04-.1.03-.11-.05,0-2.14,0-4.29,0-6.43.2-.21.47-.31.71-.45,1.14-.68,2.3-1.34,3.44-2.01.06-.04.11-.08.17-.13.54.29.72.78.72,1.36,0,1.6,0,3.21,0,4.81Z"/>
    </g>
  </g>
</svg>